<?xml version="1.0" encoding="UTF-8" standalone="no" ?>
<!DOCTYPE svg PUBLIC "-//W3C//DTD SVG 1.1//EN" "http://www.w3.org/Graphics/SVG/1.1/DTD/svg11.dtd">
<svg xmlns="http://www.w3.org/2000/svg" xmlns:xlink="http://www.w3.org/1999/xlink" version="1.1" width="267.63109999999995" height="345.32864" xml:space="preserve">
<desc>Created with Fabric.js 1.6.0-rc.1</desc>
<defs></defs>
  <g transform="translate(151.17 302.71) rotate(0.02) scale(0.82 1.27)">
   <text font-family="MANIFESTO" font-size="40" font-weight="normal" style="stroke: none; stroke-width: 1; stroke-dasharray: none; stroke-linecap: butt; stroke-linejoin: miter; stroke-miterlimit: 10; fill: #f59300; fill-rule: nonzero; opacity: 1;" ><tspan x="-124.61" y="8.98" style="stroke: none; stroke-width: 0; stroke-dasharray: none; stroke-linecap: butt; stroke-linejoin: miter; stroke-miterlimit: 4; fill: #f59300; fill-rule: ; opacity: 1;">S</tspan><tspan x="-101.84" y="8.98" style="stroke: none; stroke-width: 0; stroke-dasharray: none; stroke-linecap: butt; stroke-linejoin: miter; stroke-miterlimit: 4; fill: #f59300; fill-rule: ; opacity: 1;">h</tspan><tspan x="-72.07" y="8.98" style="stroke: none; stroke-width: 0; stroke-dasharray: none; stroke-linecap: butt; stroke-linejoin: miter; stroke-miterlimit: 4; fill: #f59300; fill-rule: ; opacity: 1;">o</tspan><tspan x="-35" y="8.98" style="stroke: none; stroke-width: 0; stroke-dasharray: none; stroke-linecap: butt; stroke-linejoin: miter; stroke-miterlimit: 4; fill: #f59300; fill-rule: ; opacity: 1;">p</tspan><tspan x="-5.23" y="8.98" style="stroke: none; stroke-width: 0; stroke-dasharray: none; stroke-linecap: butt; stroke-linejoin: miter; stroke-miterlimit: 4; fill: #f59300; fill-rule: ; opacity: 1;"> </tspan><tspan x="5.55" y="8.98" style="stroke: none; stroke-width: 0; stroke-dasharray: none; stroke-linecap: butt; stroke-linejoin: miter; stroke-miterlimit: 4; fill: #f59300; fill-rule: ; opacity: 1;">K</tspan><tspan x="35.31" y="8.98" style="stroke: none; stroke-width: 0; stroke-dasharray: none; stroke-linecap: butt; stroke-linejoin: miter; stroke-miterlimit: 4; fill: #f59300; fill-rule: ; opacity: 1;">a</tspan><tspan x="65.08" y="8.98" style="stroke: none; stroke-width: 0; stroke-dasharray: none; stroke-linecap: butt; stroke-linejoin: miter; stroke-miterlimit: 4; fill: #f59300; fill-rule: ; opacity: 1;">r</tspan><tspan x="94.84" y="8.98" style="stroke: none; stroke-width: 0; stroke-dasharray: none; stroke-linecap: butt; stroke-linejoin: miter; stroke-miterlimit: 4; fill: #f59300; fill-rule: ; opacity: 1;">t</tspan></text>
 </g>
<g style="stroke: none; stroke-width: 1; stroke-dasharray: none; stroke-linecap: butt; stroke-linejoin: miter; stroke-miterlimit: 10; fill: none; fill-rule: nonzero; opacity: 1;" transform="translate(10.000000000000014 10.000000000000014) rotate(0.3) scale(0.31 0.25)" >
  <path d="M 793.66 614.184 c -10.176 39.512 -3.306 42.568 -36.338 116.812 c -15.371 37.808 -33.34 74.707 -54.897 109.766 c -10.757 17.544 -22.603 34.492 -35.664 50.64 c -13.071 16.113 -27.437 31.382 -43.564 44.985 c -16.128 13.56 -34.155 25.381 -54.038 33.872 c -19.839 8.511 -41.606 13.394 -63.521 13.55 c -21.924 0.278 -43.652 -4.258 -63.813 -11.768 c -20.215 -7.524 -38.96 -17.983 -56.367 -29.897 c -34.79 -24.004 -64.673 -53.608 -90.386 -85.884 c -12.905 -16.128 -24.766 -32.964 -36.196 -49.995 a 1063.33 1063.33 0 0 1 -16.709 -25.791 l -8.066 -13.052 l -2.246 -3.696 a 56.885 56.885 0 0 0 -1.646 -2.886 a 113.135 113.135 0 0 0 -3.848 -5.977 c -5.439 -7.852 -11.558 -15.337 -18.467 -21.963 c -6.904 -6.636 -14.648 -12.422 -23.237 -16.592 c -8.555 -4.194 -18.018 -6.665 -27.661 -6.802 c -9.648 -0.244 -19.316 1.943 -28.413 5.562 l -0.156 0.068 l -0.327 0.093 c -1.758 0.488 -4.014 1.426 -5.957 2.397 c -2.002 0.996 -3.965 2.153 -5.864 3.398 c -3.794 2.495 -7.354 5.4 -10.645 8.599 c -6.577 6.401 -12.183 13.877 -16.743 21.963 c -9.048 16.24 -14.697 34.36 -17.866 52.837 l -0.303 1.733 l -0.142 0.869 l -0.039 0.225 l -0.107 0.527 l -0.117 0.474 l -0.928 3.579 a 224.933 224.933 0 0 1 -2.026 7.041 c -1.416 4.678 -2.993 9.287 -4.634 13.896 c -3.33 9.199 -7.212 18.262 -12.026 27.041 c -4.79 8.774 -10.488 17.354 -18.481 24.771 c -3.999 3.677 -8.701 7.007 -14.229 9.316 c -5.479 2.363 -11.826 3.481 -17.993 3.037 l 2.08 -18.11 c 3.33 0.664 6.724 0.566 10.205 -0.415 c 3.457 -1.011 6.948 -2.891 10.249 -5.361 c 6.636 -4.976 12.339 -12.095 17.344 -19.683 c 4.946 -7.676 9.17 -15.996 12.92 -24.551 c 1.885 -4.277 3.574 -8.643 5.161 -13.057 a 200.332 200.332 0 0 0 2.261 -6.641 l 1.035 -3.306 l 0.107 -0.396 l 0.015 -0.059 c -0.132 0.615 -0.029 0.137 -0.054 0.269 l 0.02 -0.112 l 0.059 -0.225 l 0.19 -0.889 l 0.391 -1.787 c 4.375 -18.94 10.483 -37.769 20.679 -54.663 c 5.068 -8.423 11.025 -16.406 18.262 -23.242 c 3.613 -3.418 7.52 -6.548 11.748 -9.258 a 63.237 63.237 0 0 1 6.587 -3.701 c 2.349 -1.108 4.512 -2.061 7.378 -2.813 l -0.493 0.151 c 9.683 -4.028 20.107 -6.499 30.762 -6.958 c 10.659 -0.435 21.465 1.304 31.602 4.927 c 10.151 3.628 19.619 9.038 28.154 15.527 c 4.282 3.232 8.315 6.782 12.134 10.537 a 126.05 126.05 0 0 1 10.767 11.929 a 135.694 135.694 0 0 1 4.873 6.484 a 78.964 78.964 0 0 1 2.388 3.564 c 0.098 0.161 -0.405 -0.679 -0.127 -0.229 l 0.137 0.19 l 0.273 0.381 l 0.547 0.767 l 1.108 1.538 l 8.872 12.217 a 1022.403 1022.403 0 0 0 18.232 24.009 c 12.349 15.83 25.332 31.084 38.569 45.977 c 13.247 14.878 26.904 29.272 41.069 42.993 c 14.229 13.638 29.014 26.606 44.873 37.881 c 15.83 11.255 32.637 20.967 50.352 27.915 c 17.69 6.978 36.289 11.025 54.971 11.318 c 18.682 0.327 37.373 -3.33 54.98 -10.361 c 17.646 -6.997 34.175 -17.261 49.424 -29.341 c 30.615 -24.253 56.001 -55.522 78.237 -88.638 c 22.241 -33.252 41.216 -68.872 58.296 -105.381 a 1015.77 1015.77 0 0 0 23.828 -55.654 c 7.314 -18.813 14.458 -37.773 20.576 -56.992 l 2.619 0.501 z" style="stroke: none; stroke-width: 1; stroke-dasharray: none; stroke-linecap: butt; stroke-linejoin: miter; stroke-miterlimit: 10; fill: #f2c56b; fill-rule: nonzero; opacity: 1;" transform=" matrix(0.9999998621227524 0 0 0.9999998621227524 0 0) " stroke-linecap="round" />
  <path d="M 434.984 270.981 s 30.64 69.014 173.657 137.588 c 0 0 203.354 100.513 174.814 245.591 c 0 0 7.515 -19.092 11.67 -49.458 c 10.029 -149.204 -244.653 -289.399 -244.653 -289.399 C 420.926 226.739 419.598 139.356 440.765 82.08 c -8.022 -27.153 -9.58 -54.863 -1.353 -82.08 c 0.01 0.005 -107.978 124.507 -4.428 270.981 z" style="stroke: none; stroke-width: 1; stroke-dasharray: none; stroke-linecap: butt; stroke-linejoin: miter; stroke-miterlimit: 10; fill: #f2c56b; fill-rule: nonzero; opacity: 1;" transform=" matrix(0.9999998621227524 0 0 0.9999998621227524 0 0) " stroke-linecap="round" />
  <path d="M 550.477 315.308 S 805.16 455.503 795.13 604.707 c 9.307 -68.018 1.729 -192.671 -145.181 -286.343 c 0 0 -172.5 -112.261 -209.18 -236.279 c -21.166 57.27 -19.843 144.658 109.708 233.223 z" style="stroke: none; stroke-width: 1; stroke-dasharray: none; stroke-linecap: butt; stroke-linejoin: miter; stroke-miterlimit: 10; fill: #e2b56d; fill-rule: nonzero; opacity: 1;" transform=" matrix(0.9999998621227524 0 0 0.9999998621227524 0 0) " stroke-linecap="round" />
  <path d="M 375.648 263.535 C 341.756 506.758 569.94 546.118 569.94 546.118 c 227.861 66.172 172.739 206.196 167.388 219.39 c 10.342 -23.623 20.796 -44.224 24.326 -64.736 c 9.365 -128.721 -194.072 -194.023 -194.072 -194.023 c -126.196 -41.426 -151.03 -119.99 -154.995 -161.05 c -28.14 -43.141 -36.939 -82.164 -36.939 -82.164 z" style="stroke: none; stroke-width: 1; stroke-dasharray: none; stroke-linecap: butt; stroke-linejoin: miter; stroke-miterlimit: 10; fill: #f2c56b; fill-rule: nonzero; opacity: 1;" transform=" matrix(0.9999998621227524 0 0 0.9999998621227524 0 0) " stroke-linecap="round" />
  <path d="M 567.576 506.748 s 203.442 65.303 194.067 194.028 c 34.385 -199.81 -225.781 -256.489 -225.781 -256.489 c -60.127 -20.869 -98.94 -61.27 -123.281 -98.589 c 3.965 41.06 28.799 119.624 154.995 161.05 z" style="stroke: none; stroke-width: 1; stroke-dasharray: none; stroke-linecap: butt; stroke-linejoin: miter; stroke-miterlimit: 10; fill: #e2b56d; fill-rule: nonzero; opacity: 1;" transform=" matrix(0.9999998621227524 0 0 0.9999998621227524 0 0) " stroke-linecap="round" />
  <path d="M 551.082 654.956 c -65.903 -24.761 -91.03 -69.141 -100.61 -98.618 c -32.52 -30.601 -47.334 -59.902 -47.334 -59.902 c 4.478 174.468 180.635 200.479 180.635 200.479 c 155.947 24.272 87.993 165.674 87.993 165.674 c 11.001 -17.827 19.814 -34.336 26.724 -49.619 c 11.997 -129.083 -147.408 -158.014 -147.408 -158.014 z" style="stroke: none; stroke-width: 1; stroke-dasharray: none; stroke-linecap: butt; stroke-linejoin: miter; stroke-miterlimit: 10; fill: #f2c56b; fill-rule: nonzero; opacity: 1;" transform=" matrix(0.9999998621227524 0 0 0.9999998621227524 0 0) " stroke-linecap="round" />
  <path d="M 450.472 556.343 c 9.58 29.478 34.707 73.857 100.61 98.618 c 0 0 159.404 28.931 147.402 158.013 c 82.31 -182.144 -107.251 -190.225 -107.251 -190.225 c -46.475 -5.684 -83.467 -22.915 -111.934 -42.886 c -10.839 -7.607 -20.414 -15.605 -28.827 -23.52 z" style="stroke: none; stroke-width: 1; stroke-dasharray: none; stroke-linecap: butt; stroke-linejoin: miter; stroke-miterlimit: 10; fill: #e2b56d; fill-rule: nonzero; opacity: 1;" transform=" matrix(0.9999998621227524 0 0 0.9999998621227524 0 0) " stroke-linecap="round" />
  <path d="M 499.447 764.58 c 32.856 0 59.492 26.636 59.492 59.487 c 0 32.856 -26.636 59.492 -59.492 59.492 c -32.856 0 -59.492 -26.636 -59.492 -59.492 c -0.001 -32.851 26.635 -59.487 59.492 -59.487 z" style="stroke: none; stroke-width: 1; stroke-dasharray: none; stroke-linecap: butt; stroke-linejoin: miter; stroke-miterlimit: 10; fill: #ffad36; fill-rule: nonzero; opacity: 1;" transform=" matrix(0.9999998621227524 0 0 0.9999998621227524 0 0) " stroke-linecap="round" />
  <path d="M 548.558 808.642 c 3.374 11.567 2.915 27.607 -3.584 23.491 c -2.051 -1.294 -2.52 -9.16 -5.903 -20.718 c -3.379 -11.567 -10.171 -18.14 -8.169 -20.483 c 4.995 -5.839 14.277 6.148 17.656 17.71 z M 515.374 773.32 c 4.795 1.875 9.424 5.498 8.081 8.921 c -1.343 3.428 -8.477 -0.181 -13.267 -2.056 c -4.79 -1.88 -7.925 -2.466 -6.587 -5.898 c 1.339 -3.418 6.988 -2.847 11.773 -0.967 z" style="stroke: none; stroke-width: 1; stroke-dasharray: none; stroke-linecap: butt; stroke-linejoin: miter; stroke-miterlimit: 10; fill: #fff; fill-rule: nonzero; opacity: 1;" transform=" matrix(0.9999998621227524 0 0 0.9999998621227524 0 0) " stroke-linecap="round" />
</g>
</svg>